<svg width="25" height="24" viewBox="0 0 25 24" fill="none" xmlns="http://www.w3.org/2000/svg">
<path d="M15.1401 22.75H9.14014C3.71014 22.75 1.39014 20.43 1.39014 15V9C1.39014 3.57 3.71014 1.25 9.14014 1.25H11.1401C11.5501 1.25 11.8901 1.59 11.8901 2C11.8901 2.41 11.5501 2.75 11.1401 2.75H9.14014C4.53014 2.75 2.89014 4.39 2.89014 9V15C2.89014 19.61 4.53014 21.25 9.14014 21.25H15.1401C19.7501 21.25 21.3901 19.61 21.3901 15V13C21.3901 12.59 21.7301 12.25 22.1401 12.25C22.5501 12.25 22.8901 12.59 22.8901 13V15C22.8901 20.43 20.5701 22.75 15.1401 22.75Z" fill="#292D32"/>
<path d="M8.63997 17.69C8.02997 17.69 7.46997 17.47 7.05997 17.07C6.56997 16.58 6.35997 15.87 6.46997 15.12L6.89997 12.11C6.97997 11.53 7.35997 10.78 7.76997 10.37L15.65 2.49C17.64 0.499998 19.66 0.499998 21.65 2.49C22.74 3.58 23.23 4.69 23.13 5.8C23.04 6.7 22.56 7.58 21.65 8.48L13.77 16.36C13.36 16.77 12.61 17.15 12.03 17.23L9.01997 17.66C8.88997 17.69 8.75997 17.69 8.63997 17.69ZM16.71 3.55L8.82997 11.43C8.63997 11.62 8.41997 12.06 8.37997 12.32L7.94997 15.33C7.90997 15.62 7.96997 15.86 8.11997 16.01C8.26997 16.16 8.50997 16.22 8.79997 16.18L11.81 15.75C12.07 15.71 12.52 15.49 12.7 15.3L20.58 7.42C21.23 6.77 21.57 6.19 21.62 5.65C21.68 5 21.34 4.31 20.58 3.54C18.98 1.94 17.88 2.39 16.71 3.55Z" fill="#292D32"/>
<path d="M19.9902 9.83C19.9202 9.83 19.8502 9.82 19.7902 9.8C17.1602 9.06 15.0702 6.97 14.3302 4.34C14.2202 3.94 14.4502 3.53 14.8502 3.41C15.2502 3.3 15.6602 3.53 15.7702 3.93C16.3702 6.06 18.0602 7.75 20.1902 8.35C20.5902 8.46 20.8202 8.88 20.7102 9.28C20.6202 9.62 20.3202 9.83 19.9902 9.83Z" fill="#292D32"/>
</svg>
