<svg width="24" height="24" viewBox="0 0 24 24" fill="none" xmlns="http://www.w3.org/2000/svg">
<path d="M4.91047 10C3.83017 10 2.94629 10.9 2.94629 12C2.94629 13.1 3.83017 14 4.91047 14C5.99077 14 6.87465 13.1 6.87465 12C6.87465 10.9 5.99077 10 4.91047 10Z" stroke="black" stroke-width="1.5"/>
<path d="M18.6595 10C17.5792 10 16.6953 10.9 16.6953 12C16.6953 13.1 17.5792 14 18.6595 14C19.7398 14 20.6237 13.1 20.6237 12C20.6237 10.9 19.7398 10 18.6595 10Z" stroke="black" stroke-width="1.5"/>
<path d="M11.785 10C10.7047 10 9.8208 10.9 9.8208 12C9.8208 13.1 10.7047 14 11.785 14C12.8653 14 13.7492 13.1 13.7492 12C13.7492 10.9 12.8653 10 11.785 10Z" stroke="black" stroke-width="1.5"/>
</svg>
