<svg width="20" height="20" viewBox="0 0 20 20" fill="none" xmlns="http://www.w3.org/2000/svg">
<path opacity="0.4" d="M7.22484 11.6667H3.33317C2.4165 11.6667 1.6665 12.4167 1.6665 13.3334V18.3334H7.22484V11.6667Z" fill="black" fill-opacity="0.5"/>
<path d="M11.1085 8.33331H8.88346C7.9668 8.33331 7.2168 9.08331 7.2168 9.99998V18.3333H12.7751V9.99998C12.7751 9.08331 12.0335 8.33331 11.1085 8.33331Z" fill="black" fill-opacity="0.5"/>
<path opacity="0.4" d="M16.6666 14.1667H12.7749V18.3334H18.3332V15.8334C18.3332 14.9167 17.5832 14.1667 16.6666 14.1667Z" fill="black" fill-opacity="0.5"/>
<path d="M12.5084 4.04168C12.7667 3.78335 12.8667 3.47501 12.7834 3.20835C12.7001 2.94168 12.4417 2.75002 12.0751 2.69168L11.2751 2.55835C11.2417 2.55002 11.1667 2.5 11.1501 2.46667L10.7084 1.58334C10.3751 0.908337 9.61673 0.908337 9.2834 1.58334L8.84173 2.46667C8.82506 2.5 8.75006 2.55002 8.71673 2.55835L7.91673 2.69168C7.55006 2.75002 7.30006 2.94168 7.2084 3.20835C7.12506 3.47501 7.22506 3.78335 7.4834 4.04168L8.10006 4.66668C8.12506 4.69168 8.1584 4.79168 8.15006 4.82502L7.97506 5.59167C7.84173 6.15834 8.0584 6.41667 8.20006 6.525C8.34173 6.625 8.65006 6.75834 9.1584 6.45834L9.9084 6.01668C9.94173 5.99168 10.0501 5.99168 10.0834 6.01668L10.8334 6.45834C11.0667 6.60001 11.2584 6.64168 11.4084 6.64168C11.5834 6.64168 11.7084 6.575 11.7834 6.525C11.9251 6.425 12.1417 6.16667 12.0084 5.59167L11.8334 4.82502C11.8251 4.78335 11.8501 4.69168 11.8834 4.66668L12.5084 4.04168Z" fill="black" fill-opacity="0.5"/>
</svg>
