<svg width="20" height="20" viewBox="0 0 20 20" fill="none" xmlns="http://www.w3.org/2000/svg">
<path opacity="0.4" d="M9.99984 18.3334C14.6022 18.3334 18.3332 14.6024 18.3332 10C18.3332 5.39765 14.6022 1.66669 9.99984 1.66669C5.39746 1.66669 1.6665 5.39765 1.6665 10C1.6665 14.6024 5.39746 18.3334 9.99984 18.3334Z" fill="#6664FF"/>
<path d="M13.0919 13.275C12.9835 13.275 12.8752 13.25 12.7752 13.1834L10.1919 11.6417C9.55019 11.2584 9.0752 10.4167 9.0752 9.67503V6.25836C9.0752 5.9167 9.35853 5.63336 9.7002 5.63336C10.0419 5.63336 10.3252 5.9167 10.3252 6.25836V9.67503C10.3252 9.97503 10.5752 10.4167 10.8335 10.5667L13.4169 12.1084C13.7169 12.2834 13.8085 12.6667 13.6335 12.9667C13.5085 13.1667 13.3002 13.275 13.0919 13.275Z" fill="#6664FF"/>
</svg>
