<svg width="20" height="20" viewBox="0 0 20 20" fill="none" xmlns="http://www.w3.org/2000/svg">
<path opacity="0.4" d="M17.0835 8.49169H14.6752C12.7002 8.49169 11.0918 6.88335 11.0918 4.90835V2.50002C11.0918 2.04169 10.7168 1.66669 10.2585 1.66669H6.72516C4.1585 1.66669 2.0835 3.33335 2.0835 6.30835V13.6917C2.0835 16.6667 4.1585 18.3334 6.72516 18.3334H13.2752C15.8418 18.3334 17.9168 16.6667 17.9168 13.6917V9.32502C17.9168 8.86669 17.5418 8.49169 17.0835 8.49169Z" fill="#6664FF"/>
<path d="M13.1667 1.84164C12.8251 1.49997 12.2334 1.73331 12.2334 2.20831V5.11664C12.2334 6.33331 13.2667 7.34164 14.5251 7.34164C15.3167 7.34997 16.4167 7.34997 17.3584 7.34997C17.8334 7.34997 18.0834 6.79164 17.7501 6.45831C16.5501 5.24997 14.4001 3.07497 13.1667 1.84164Z" fill="#6664FF"/>
<path d="M11.25 11.4583H6.25C5.90833 11.4583 5.625 11.175 5.625 10.8333C5.625 10.4916 5.90833 10.2083 6.25 10.2083H11.25C11.5917 10.2083 11.875 10.4916 11.875 10.8333C11.875 11.175 11.5917 11.4583 11.25 11.4583Z" fill="#6664FF"/>
<path d="M9.58333 14.7917H6.25C5.90833 14.7917 5.625 14.5084 5.625 14.1667C5.625 13.825 5.90833 13.5417 6.25 13.5417H9.58333C9.925 13.5417 10.2083 13.825 10.2083 14.1667C10.2083 14.5084 9.925 14.7917 9.58333 14.7917Z" fill="#6664FF"/>
</svg>
