<svg width="20" height="20" viewBox="0 0 20 20" fill="none" xmlns="http://www.w3.org/2000/svg">
<path opacity="0.4" d="M13.4915 1.66669H6.50817C3.47484 1.66669 1.6665 3.47502 1.6665 6.50835V13.4834C1.6665 16.525 3.47484 18.3334 6.50817 18.3334H13.4832C16.5165 18.3334 18.3248 16.525 18.3248 13.4917V6.50835C18.3332 3.47502 16.5248 1.66669 13.4915 1.66669Z" fill="#6664FF"/>
<path d="M13.6834 6.50835V13.4917C13.6834 14.025 13.25 14.4584 12.7167 14.4584C12.175 14.4584 11.7417 14.025 11.7417 13.4917V6.50835C11.7417 5.97502 12.175 5.54169 12.7167 5.54169C13.25 5.54169 13.6834 5.97502 13.6834 6.50835Z" fill="#6664FF"/>
<path d="M8.25807 10.775V13.4917C8.25807 14.025 7.82474 14.4583 7.28307 14.4583C6.74974 14.4583 6.31641 14.025 6.31641 13.4917V10.775C6.31641 10.2417 6.74974 9.80835 7.28307 9.80835C7.82474 9.80835 8.25807 10.2417 8.25807 10.775Z" fill="#6664FF"/>
</svg>
